<svg width="183" height="27" viewBox="0 0 183 27" fill="none" xmlns="http://www.w3.org/2000/svg">
<path d="M0.792 11.552C0.792 9.888 1.152 8.408 1.872 7.112C2.592 5.8 3.592 4.784 4.872 4.064C6.168 3.328 7.632 2.96 9.264 2.96C11.264 2.96 12.976 3.488 14.4 4.544C15.824 5.6 16.776 7.04 17.256 8.864H12.744C12.408 8.16 11.928 7.624 11.304 7.256C10.696 6.888 10 6.704 9.216 6.704C7.952 6.704 6.928 7.144 6.144 8.024C5.36 8.904 4.968 10.08 4.968 11.552C4.968 13.024 5.36 14.2 6.144 15.08C6.928 15.96 7.952 16.4 9.216 16.4C10 16.4 10.696 16.216 11.304 15.848C11.928 15.48 12.408 14.944 12.744 14.24H17.256C16.776 16.064 15.824 17.504 14.4 18.56C12.976 19.6 11.264 20.12 9.264 20.12C7.632 20.12 6.168 19.76 4.872 19.04C3.592 18.304 2.592 17.288 1.872 15.992C1.152 14.696 0.792 13.216 0.792 11.552Z" fill="#FF6B6B"/>
<path d="M23.8733 2.24V20H19.7693V2.24H23.8733Z" fill="#FFAC4A"/>
<path d="M26.0314 13.28C26.0314 11.904 26.2874 10.696 26.7994 9.656C27.3274 8.616 28.0394 7.816 28.9354 7.256C29.8314 6.696 30.8314 6.416 31.9354 6.416C32.8794 6.416 33.7034 6.608 34.4074 6.992C35.1274 7.376 35.6794 7.88 36.0634 8.504V6.608H40.1674V20H36.0634V18.104C35.6634 18.728 35.1034 19.232 34.3834 19.616C33.6794 20 32.8554 20.192 31.9114 20.192C30.8234 20.192 29.8314 19.912 28.9354 19.352C28.0394 18.776 27.3274 17.968 26.7994 16.928C26.2874 15.872 26.0314 14.656 26.0314 13.28ZM36.0634 13.304C36.0634 12.28 35.7754 11.472 35.1994 10.88C34.6394 10.288 33.9514 9.992 33.1354 9.992C32.3194 9.992 31.6234 10.288 31.0474 10.88C30.4874 11.456 30.2074 12.256 30.2074 13.28C30.2074 14.304 30.4874 15.12 31.0474 15.728C31.6234 16.32 32.3194 16.616 33.1354 16.616C33.9514 16.616 34.6394 16.32 35.1994 15.728C35.7754 15.136 36.0634 14.328 36.0634 13.304Z" fill="#EEDC3E"/>
<path d="M56.8164 6.608L48.4164 26.36H44.0004L47.0724 19.544L41.6244 6.608H46.2084L49.3044 14.984L52.3764 6.608H56.8164Z" fill="#36CC4E"/>
<path d="M62.6904 11.552C62.6904 9.888 63.0504 8.408 63.7704 7.112C64.4904 5.8 65.4904 4.784 66.7704 4.064C68.0664 3.328 69.5304 2.96 71.1624 2.96C73.1624 2.96 74.8744 3.488 76.2984 4.544C77.7224 5.6 78.6744 7.04 79.1544 8.864H74.6424C74.3064 8.16 73.8264 7.624 73.2024 7.256C72.5944 6.888 71.8984 6.704 71.1144 6.704C69.8504 6.704 68.8264 7.144 68.0424 8.024C67.2584 8.904 66.8664 10.08 66.8664 11.552C66.8664 13.024 67.2584 14.2 68.0424 15.08C68.8264 15.96 69.8504 16.4 71.1144 16.4C71.8984 16.4 72.5944 16.216 73.2024 15.848C73.8264 15.48 74.3064 14.944 74.6424 14.24H79.1544C78.6744 16.064 77.7224 17.504 76.2984 18.56C74.8744 19.6 73.1624 20.12 71.1624 20.12C69.5304 20.12 68.0664 19.76 66.7704 19.04C65.4904 18.304 64.4904 17.288 63.7704 15.992C63.0504 14.696 62.6904 13.216 62.6904 11.552Z" fill="#2A86F3"/>
<path d="M85.7717 8.84C86.2517 8.104 86.8517 7.528 87.5717 7.112C88.2917 6.68 89.0917 6.464 89.9717 6.464V10.808H88.8437C87.8197 10.808 87.0517 11.032 86.5397 11.48C86.0277 11.912 85.7717 12.68 85.7717 13.784V20H81.6677V6.608H85.7717V8.84Z" fill="#9167EA"/>
<path d="M104.557 13.088C104.557 13.472 104.533 13.872 104.485 14.288H95.1973C95.2613 15.12 95.5253 15.76 95.9893 16.208C96.4693 16.64 97.0533 16.856 97.7413 16.856C98.7653 16.856 99.4773 16.424 99.8773 15.56H104.245C104.021 16.44 103.613 17.232 103.021 17.936C102.445 18.64 101.717 19.192 100.837 19.592C99.9573 19.992 98.9733 20.192 97.8853 20.192C96.5733 20.192 95.4053 19.912 94.3813 19.352C93.3573 18.792 92.5573 17.992 91.9813 16.952C91.4053 15.912 91.1173 14.696 91.1173 13.304C91.1173 11.912 91.3973 10.696 91.9573 9.656C92.5333 8.616 93.3333 7.816 94.3573 7.256C95.3813 6.696 96.5573 6.416 97.8853 6.416C99.1813 6.416 100.333 6.688 101.341 7.232C102.349 7.776 103.133 8.552 103.693 9.56C104.269 10.568 104.557 11.744 104.557 13.088ZM100.357 12.008C100.357 11.304 100.117 10.744 99.6373 10.328C99.1573 9.912 98.5573 9.704 97.8373 9.704C97.1493 9.704 96.5653 9.904 96.0853 10.304C95.6213 10.704 95.3333 11.272 95.2213 12.008H100.357Z" fill="#3C07AC"/>
<path d="M105.906 13.28C105.906 11.904 106.162 10.696 106.674 9.656C107.202 8.616 107.914 7.816 108.81 7.256C109.706 6.696 110.706 6.416 111.81 6.416C112.754 6.416 113.578 6.608 114.282 6.992C115.002 7.376 115.554 7.88 115.938 8.504V6.608H120.042V20H115.938V18.104C115.538 18.728 114.978 19.232 114.258 19.616C113.554 20 112.73 20.192 111.786 20.192C110.698 20.192 109.706 19.912 108.81 19.352C107.914 18.776 107.202 17.968 106.674 16.928C106.162 15.872 105.906 14.656 105.906 13.28ZM115.938 13.304C115.938 12.28 115.65 11.472 115.074 10.88C114.514 10.288 113.826 9.992 113.01 9.992C112.194 9.992 111.498 10.288 110.922 10.88C110.362 11.456 110.082 12.256 110.082 13.28C110.082 14.304 110.362 15.12 110.922 15.728C111.498 16.32 112.194 16.616 113.01 16.616C113.826 16.616 114.514 16.32 115.074 15.728C115.65 15.136 115.938 14.328 115.938 13.304Z" fill="#FEB8B4"/>
<path d="M130.475 16.52V20H128.387C126.899 20 125.739 19.64 124.907 18.92C124.075 18.184 123.659 16.992 123.659 15.344V10.016H122.027V6.608H123.659V3.344H127.763V6.608H130.451V10.016H127.763V15.392C127.763 15.792 127.859 16.08 128.051 16.256C128.243 16.432 128.563 16.52 129.011 16.52H130.475Z" fill="#FFCE6D"/>
<path d="M134.825 5.216C134.105 5.216 133.513 5.008 133.049 4.592C132.601 4.16 132.377 3.632 132.377 3.008C132.377 2.368 132.601 1.84 133.049 1.424C133.513 0.991999 134.105 0.775999 134.825 0.775999C135.529 0.775999 136.105 0.991999 136.553 1.424C137.017 1.84 137.249 2.368 137.249 3.008C137.249 3.632 137.017 4.16 136.553 4.592C136.105 5.008 135.529 5.216 134.825 5.216ZM136.865 6.608V20H132.761V6.608H136.865Z" fill="#CCE72A"/>
<path d="M145.936 20.192C144.624 20.192 143.44 19.912 142.384 19.352C141.344 18.792 140.52 17.992 139.912 16.952C139.32 15.912 139.024 14.696 139.024 13.304C139.024 11.928 139.328 10.72 139.936 9.68C140.544 8.624 141.376 7.816 142.432 7.256C143.488 6.696 144.672 6.416 145.984 6.416C147.296 6.416 148.48 6.696 149.536 7.256C150.592 7.816 151.424 8.624 152.032 9.68C152.64 10.72 152.944 11.928 152.944 13.304C152.944 14.68 152.632 15.896 152.008 16.952C151.4 17.992 150.56 18.792 149.488 19.352C148.432 19.912 147.248 20.192 145.936 20.192ZM145.936 16.64C146.72 16.64 147.384 16.352 147.928 15.776C148.488 15.2 148.768 14.376 148.768 13.304C148.768 12.232 148.496 11.408 147.952 10.832C147.424 10.256 146.768 9.968 145.984 9.968C145.184 9.968 144.52 10.256 143.992 10.832C143.464 11.392 143.2 12.216 143.2 13.304C143.2 14.376 143.456 15.2 143.968 15.776C144.496 16.352 145.152 16.64 145.936 16.64Z" fill="#6DE8AD"/>
<path d="M163.281 6.464C164.849 6.464 166.097 6.976 167.025 8C167.969 9.008 168.441 10.4 168.441 12.176V20H164.361V12.728C164.361 11.832 164.129 11.136 163.665 10.64C163.201 10.144 162.577 9.896 161.793 9.896C161.009 9.896 160.385 10.144 159.921 10.64C159.457 11.136 159.225 11.832 159.225 12.728V20H155.121V6.608H159.225V8.384C159.641 7.792 160.201 7.328 160.905 6.992C161.609 6.64 162.401 6.464 163.281 6.464Z" fill="#8ECEEA"/>
<path d="M176.741 20.192C175.573 20.192 174.533 19.992 173.621 19.592C172.709 19.192 171.989 18.648 171.461 17.96C170.933 17.256 170.637 16.472 170.573 15.608H174.629C174.677 16.072 174.893 16.448 175.277 16.736C175.661 17.024 176.133 17.168 176.693 17.168C177.205 17.168 177.597 17.072 177.869 16.88C178.157 16.672 178.301 16.408 178.301 16.088C178.301 15.704 178.101 15.424 177.701 15.248C177.301 15.056 176.653 14.848 175.757 14.624C174.797 14.4 173.997 14.168 173.357 13.928C172.717 13.672 172.165 13.28 171.701 12.752C171.237 12.208 171.005 11.48 171.005 10.568C171.005 9.8 171.213 9.104 171.629 8.48C172.061 7.84 172.685 7.336 173.501 6.968C174.333 6.6 175.317 6.416 176.453 6.416C178.133 6.416 179.453 6.832 180.413 7.664C181.389 8.496 181.949 9.6 182.093 10.976H178.301C178.237 10.512 178.029 10.144 177.677 9.872C177.341 9.6 176.893 9.464 176.333 9.464C175.853 9.464 175.485 9.56 175.229 9.752C174.973 9.928 174.845 10.176 174.845 10.496C174.845 10.88 175.045 11.168 175.445 11.36C175.861 11.552 176.501 11.744 177.365 11.936C178.357 12.192 179.165 12.448 179.789 12.704C180.413 12.944 180.957 13.344 181.421 13.904C181.901 14.448 182.149 15.184 182.165 16.112C182.165 16.896 181.941 17.6 181.493 18.224C181.061 18.832 180.429 19.312 179.597 19.664C178.781 20.016 177.829 20.192 176.741 20.192Z" fill="#E5B2F7"/>
</svg>
